<svg id="Design" xmlns="http://www.w3.org/2000/svg" width="489.38" height="170.19" viewBox="0 0 489.38 170.19"><path d="M178.35,61.85a.38.38,0,0,1,.72,0l21.45,43.55a.39.39,0,0,1-.38.62h-8.61a1.23,1.23,0,0,1-1-.62l-2.68-5.52a1.23,1.23,0,0,0-1-.62H170.51a1.23,1.23,0,0,0-1,.62l-2.68,5.52a1.22,1.22,0,0,1-1,.62h-8.54a.4.4,0,0,1-.39-.62Zm5,29.43a.4.4,0,0,0,.39-.62L179,80.75c-.16-.34-.43-.34-.6,0l-4.76,9.91a.4.4,0,0,0,.39.62Z" fill="#fff"/><path d="M351.89,61.85a.37.37,0,0,1,.71,0l21.45,43.55a.39.39,0,0,1-.38.62h-8.61a1.23,1.23,0,0,1-1-.62l-2.68-5.52a1.22,1.22,0,0,0-1-.62H344a1.23,1.23,0,0,0-1,.62l-2.68,5.52a1.22,1.22,0,0,1-1,.62h-8.54a.4.4,0,0,1-.39-.62Zm5,29.43a.4.4,0,0,0,.39-.62l-4.82-9.91c-.16-.34-.43-.34-.6,0l-4.76,9.91a.4.4,0,0,0,.39.62Z" fill="#fff"/><path d="M248.87,98.29a.69.69,0,0,1,0,1l0,0a22.47,22.47,0,0,1-16.72,7.39c-12.61,0-22.85-9.2-22.85-21.87s10.24-21.93,22.85-21.93a22.47,22.47,0,0,1,16.66,7.34l0,0a.69.69,0,0,1,0,1l0,0-5.32,4.51h0a.69.69,0,0,1-1,0l0,0a14.4,14.4,0,0,0-10.32-4.32,13.37,13.37,0,1,0,0,26.74,14.38,14.38,0,0,0,10.38-4.37l0,0a.69.69,0,0,1,.94,0l.1.08,5.25,4.45Z" fill="#fff"/><path d="M271,72.78a.69.69,0,0,0-.69-.69H260.2a.69.69,0,0,1-.69-.69V64.25a.69.69,0,0,1,.69-.69H291a.69.69,0,0,1,.7.69V71.4a.69.69,0,0,1-.7.69H281.1a.7.7,0,0,0-.7.69v32.55a.69.69,0,0,1-.69.69h-8a.69.69,0,0,1-.69-.69Z" fill="#fff"/><path d="M308.37,64.25a.69.69,0,0,1,.69-.69h8a.69.69,0,0,1,.69.69v41.08a.69.69,0,0,1-.69.69h-8a.69.69,0,0,1-.69-.69Z" fill="#fff"/><path d="M415.56,64.25a.69.69,0,0,1,.69-.69h7.88a.69.69,0,0,1,.69.69v42c0,.77-.46,1-1,.46L397.34,82.89c-.57-.51-1-.31-1,.45v22a.69.69,0,0,1-.7.69h-7.87a.69.69,0,0,1-.69-.69v-42c0-.76.46-1,1-.46l26.46,23.92c.57.51,1,.3,1-.46Z" fill="#fff"/><path d="M435.77,64.16h-1.66v-.62h4v.62h-1.66v5.45h-.67Z" fill="#fff"/><path d="M439.92,63.35l2.94,4.17,2.94-4.17v6.26h-.68V65.35l-2.26,3.24-2.26-3.24v4.26h-.68Z" fill="#fff"/><path d="M129,107.66a1.16,1.16,0,0,0-.89-.51h-13a1.16,1.16,0,0,1-.89-.51L91.82,68.48a.32.32,0,0,0-.6,0L68.79,106.64a1.16,1.16,0,0,1-.89.51h-13a1.16,1.16,0,0,0-.89.51l-3,5.09c-.17.28,0,.51.29.51H71.4a1.16,1.16,0,0,0,.89-.51L91.22,80.54a.32.32,0,0,1,.6,0l18.93,32.21a1.16,1.16,0,0,0,.89.51h20.1c.33,0,.46-.23.29-.51Z" fill="#238ffb"/><path d="M139.22,125c.16.28,0,.51-.29.51H104.65a1.13,1.13,0,0,1-.89-.51L91.82,104.67a.32.32,0,0,0-.6,0L79.28,125a1.13,1.13,0,0,1-.89.51H44.11c-.32,0-.45-.23-.29-.51l3-5.09a1.13,1.13,0,0,1,.89-.51H74.89a1.13,1.13,0,0,0,.89-.51L91.22,92.61a.32.32,0,0,1,.6,0l15.44,26.26a1.13,1.13,0,0,0,.89.51h27.18a1.13,1.13,0,0,1,.89.51Z" fill="#2549c9"/><path d="M91.82,116.74a.32.32,0,0,0-.6,0L86.38,125c-.17.28,0,.51.29.51h9.7c.33,0,.46-.23.29-.51Z" fill="#2549c9"/><path d="M91.22,44.34a.32.32,0,0,1,.6,0l33,56.19c.17.28,0,.5-.29.5h-5.91a1.15,1.15,0,0,1-.89-.5L91.82,56.41a.32.32,0,0,0-.6,0L65.29,100.53a1.15,1.15,0,0,1-.89.5H58.49c-.33,0-.46-.22-.29-.5Z" fill="#9cf"/></svg>