<svg xmlns="http://www.w3.org/2000/svg" viewBox="0 0 402.05 81.36"><defs><style>.cls-1{fill:#fff;}</style></defs><title>Actian-Logo-RGB_Horizontal-White</title><g id="Layer_2" data-name="Layer 2"><g id="Design"><path class="cls-1" d="M135.32,17.71a.37.37,0,0,0-.71,0L113.15,61.27a.4.4,0,0,0,.39.62h8.55a1.21,1.21,0,0,0,1-.62l2.68-5.52a1.23,1.23,0,0,1,1-.62H143.1a1.22,1.22,0,0,1,1,.62l2.68,5.52a1.23,1.23,0,0,0,1,.62h8.61a.39.39,0,0,0,.38-.62Zm4.31,29.44h-9.4a.41.41,0,0,1-.39-.63l4.76-9.9c.17-.34.44-.34.6,0l4.82,9.9A.4.4,0,0,1,139.63,47.15Z"/><path class="cls-1" d="M308.85,17.71a.37.37,0,0,0-.71,0L286.68,61.27a.4.4,0,0,0,.39.62h8.55a1.21,1.21,0,0,0,1-.62l2.69-5.52a1.2,1.2,0,0,1,1-.62h16.35a1.21,1.21,0,0,1,1,.62l2.68,5.52a1.23,1.23,0,0,0,1,.62h8.61a.39.39,0,0,0,.38-.62Zm4.31,29.44h-9.4a.41.41,0,0,1-.39-.63l4.76-9.9c.17-.34.44-.34.61,0l4.81,9.9A.4.4,0,0,1,313.16,47.15Z"/><path class="cls-1" d="M205.07,54.12l-5.25-4.45-.1-.08a.68.68,0,0,0-.93,0l0,0A14.39,14.39,0,0,1,188.37,54a13.13,13.13,0,0,1-13.46-13.34,13.19,13.19,0,0,1,13.46-13.41,14.37,14.37,0,0,1,10.32,4.33l0,0a.71.71,0,0,0,1,0h0L205,27.12l0,0a.71.71,0,0,0,0-1l0,0a22.5,22.5,0,0,0-16.66-7.33c-12.61,0-22.85,9.26-22.85,21.93s10.24,21.87,22.85,21.87a22.54,22.54,0,0,0,16.73-7.39l0,0a.69.69,0,0,0,0-1Z"/><path class="cls-1" d="M247.3,19.43H216.45a.69.69,0,0,0-.69.69v7.14a.69.69,0,0,0,.69.69h10.13a.7.7,0,0,1,.69.7V61.2a.69.69,0,0,0,.7.69h8a.7.7,0,0,0,.7-.69V28.65a.7.7,0,0,1,.69-.7h10a.69.69,0,0,0,.69-.69V20.12A.69.69,0,0,0,247.3,19.43Z"/><rect class="cls-1" x="264.62" y="19.43" width="9.38" height="42.47" rx="0.69"/><path class="cls-1" d="M380.38,19.43H372.5a.69.69,0,0,0-.69.69V42.17c0,.76-.46,1-1,.45L344.32,18.71c-.56-.51-1-.31-1,.46v42a.69.69,0,0,0,.69.69h7.88a.69.69,0,0,0,.69-.69v-22c0-.76.46-1,1-.46L380,62.61c.57.51,1,.3,1-.46v-42A.69.69,0,0,0,380.38,19.43Z"/><polygon class="cls-1" points="390.36 20.03 392.02 20.03 392.02 25.47 392.69 25.47 392.69 20.03 394.35 20.03 394.35 19.4 390.36 19.4 390.36 20.03"/><polygon class="cls-1" points="399.11 23.39 396.17 19.22 396.17 25.47 396.85 25.47 396.85 21.21 399.11 24.45 401.37 21.21 401.37 25.47 402.05 25.47 402.05 19.22 399.11 23.39"/><path class="cls-1" d="M7.55,69.13h20.1a1.16,1.16,0,0,0,.89-.51L47.47,36.41a.32.32,0,0,1,.6,0L67,68.62a1.13,1.13,0,0,0,.89.51H88c.33,0,.46-.23.29-.51l-3-5.09A1.16,1.16,0,0,0,84.4,63h-13a1.16,1.16,0,0,1-.89-.51L48.07,24.34a.32.32,0,0,0-.6,0L25,62.51a1.16,1.16,0,0,1-.89.51h-13a1.17,1.17,0,0,0-.9.51l-3,5.09C7.09,68.9,7.23,69.13,7.55,69.13Z"/><path class="cls-1" d="M92.48,75.75a1.15,1.15,0,0,0-.89-.5H64.4a1.13,1.13,0,0,1-.89-.51L48.07,48.48a.32.32,0,0,0-.6,0L32,74.74a1.16,1.16,0,0,1-.89.51H4a1.12,1.12,0,0,0-.89.5l-3,5.1c-.16.28,0,.51.29.51H34.64a1.13,1.13,0,0,0,.89-.51L47.47,60.54a.32.32,0,0,1,.6,0L60,80.85a1.13,1.13,0,0,0,.89.51H95.18c.32,0,.46-.23.29-.51Z"/><path class="cls-1" d="M48.07,72.61a.32.32,0,0,0-.6,0l-4.84,8.24c-.17.28,0,.51.29.51h9.7c.33,0,.46-.23.3-.51Z"/><path class="cls-1" d="M14.74,56.9h5.91a1.15,1.15,0,0,0,.89-.51L47.47,12.28a.32.32,0,0,1,.6,0L74,56.39a1.16,1.16,0,0,0,.89.51H80.8c.33,0,.46-.23.29-.51L48.07.21a.32.32,0,0,0-.6,0l-33,56.18C14.28,56.67,14.41,56.9,14.74,56.9Z"/></g></g></svg>