<svg xmlns="http://www.w3.org/2000/svg" viewBox="0 0 196.06 166.95"><defs><style>.cls-1{fill:#238ffb;}.cls-2{fill:#2549c9;}.cls-3{fill:#86c1fd;}</style></defs><title>Asset 2</title><g id="Layer_2" data-name="Layer 2"><g id="Design"><path class="cls-1" d="M175,130.36a2.33,2.33,0,0,0-1.82-1.05H146.5a2.35,2.35,0,0,1-1.82-1L98.64,50a.66.66,0,0,0-1.23,0l-46,78.32a2.37,2.37,0,0,1-1.83,1H22.87A2.35,2.35,0,0,0,21,130.36L14.9,140.81c-.34.58-.07,1.05.59,1.05H56.73a2.35,2.35,0,0,0,1.83-1.05l38.85-66.1a.66.66,0,0,1,1.23,0l38.86,66.1a2.33,2.33,0,0,0,1.82,1.05h41.24c.67,0,.94-.47.6-1.05Z"/><path class="cls-2" d="M195.91,165.91c.34.57.07,1-.6,1H125a2.37,2.37,0,0,1-1.83-1l-24.5-41.68a.66.66,0,0,0-1.23,0L72.92,165.91a2.37,2.37,0,0,1-1.83,1H.74c-.66,0-.93-.47-.59-1l6.14-10.46a2.37,2.37,0,0,1,1.83-1H63.91a2.35,2.35,0,0,0,1.83-1L97.41,99.47a.66.66,0,0,1,1.23,0l31.68,53.89a2.35,2.35,0,0,0,1.83,1h55.79a2.35,2.35,0,0,1,1.82,1Z"/><path class="cls-2" d="M98.64,149a.66.66,0,0,0-1.23,0l-9.94,16.92c-.34.57-.07,1,.6,1H108c.66,0,.93-.47.59-1Z"/><path class="cls-3" d="M97.41.43a.66.66,0,0,1,1.23,0l67.77,115.29c.34.57.07,1-.6,1H153.68a2.37,2.37,0,0,1-1.83-1L98.64,25.19a.66.66,0,0,0-1.23,0L44.2,115.72a2.37,2.37,0,0,1-1.83,1H30.25c-.67,0-.94-.47-.6-1Z"/></g></g></svg>