<?xml version="1.0" encoding="UTF-8"?>
<svg width="337px" height="20px" viewBox="0 0 337 20" version="1.1" xmlns="http://www.w3.org/2000/svg" xmlns:xlink="http://www.w3.org/1999/xlink">
    <title>Logos / IM / Black</title>
    <g id="Logos-/-IM-/-Black" stroke="none" stroke-width="1" fill="none" fill-rule="evenodd">
        <g id="im" transform="translate(1.000000, 0.000000)" fill="#000000" fill-rule="nonzero" stroke="#FFFFFF">
            <polygon id="Path" points="3.6 19.5 0 19.5 0 1.5 3.6 1.5"></polygon>
            <polygon id="Path" points="9.3 1.5 10.3 1.5 21.3 12 21.3 1.5 24.9 1.5 24.9 19.5 23.9 19.5 12.9 9 12.9 19.5 9.3 19.5"></polygon>
            <polygon id="Path" points="29 1.5 44.6 1.5 44.6 5.1 38.6 5.1 38.6 19.5 35 19.5 35 5.1 29 5.1"></polygon>
            <polygon id="Path" points="48.7 1.5 61.9 1.5 61.9 5.1 52.3 5.1 52.3 10.5 59.5 10.5 59.5 14.1 52.3 14.1 52.3 15.9 61.9 15.9 61.9 19.5 48.7 19.5"></polygon>
            <path d="M81,15.9 C79.4,18.1 76.8,19.5 73.8,19.5 C68.8,19.5 64.8,15.5 64.8,10.5 C64.8,5.5 68.8,1.5 73.8,1.5 C76.9,1.5 79.7,3.1 81.3,5.6 L78.4,7.8 C77.5,6.2 75.7,5.1 73.7,5.1 C70.7,5.1 68.3,7.5 68.3,10.5 C68.3,13.5 70.7,15.9 73.7,15.9 C75.1,15.9 76.3,15.4 77.3,14.5 L77.3,13.5 L73.1,13.5 L73.1,9.9 L80.9,9.9 L81,15.9 L81,15.9 Z" id="Path"></path>
            <path d="M99.5,19.5 L95.2,19.5 L92.1,14.7 L89.3,14.7 L89.3,19.5 L85.7,19.5 L85.7,1.5 L92.3,1.5 C95.9,1.5 98.9,4.5 98.9,8.1 C98.9,10.5 97.7,12.5 95.8,13.7 L99.5,19.5 Z M92.2,11.1 C93.9,11.1 95.2,9.8 95.2,8.1 C95.2,6.4 93.9,5.1 92.2,5.1 L89.2,5.1 L89.2,11.1 L92.2,11.1 Z" id="Shape"></path>
            <path d="M115.6,16.5 L106.3,16.5 L104.7,19.5 L100.6,19.5 L111,0.5 L121.4,19.5 L117.3,19.5 L115.6,16.5 Z M113.6,12.9 L110.9,8 L108.2,12.9 L113.6,12.9 Z" id="Shape"></path>
            <polygon id="Path" points="120.4 1.5 136 1.5 136 5.1 130 5.1 130 19.5 126.4 19.5 126.4 5.1 120.4 5.1"></polygon>
            <polygon id="Path" points="143.6 19.5 140 19.5 140 1.5 143.6 1.5"></polygon>
            <path d="M156,19.5 C151,19.5 147,15.5 147,10.5 C147,5.5 151,1.5 156,1.5 C161,1.5 165,5.5 165,10.5 C165,15.5 161,19.5 156,19.5 Z M150.6,10.5 C150.6,13.5 153,15.9 156,15.9 C159,15.9 161.4,13.5 161.4,10.5 C161.4,7.5 159,5.1 156,5.1 C153,5.1 150.6,7.5 150.6,10.5 Z" id="Shape"></path>
            <polygon id="Path" points="168.4 1.5 169.4 1.5 180.4 12 180.4 1.5 184 1.5 184 19.5 183 19.5 172 9 172 19.5 168.4 19.5"></polygon>
            <polygon id="Path" points="199.1 1.5 200 1.5 206.5 8.5 213 1.5 213.9 1.5 215.3 19.5 211.7 19.5 210.9 9.1 206.5 13.9 202.1 9.1 201.3 19.5 197.7 19.5"></polygon>
            <path d="M232.9,16.5 L223.6,16.5 L222,19.5 L217.9,19.5 L228.3,0.5 L238.7,19.5 L234.6,19.5 L232.9,16.5 Z M230.9,12.9 L228.2,8 L225.5,12.9 L230.9,12.9 Z" id="Shape"></path>
            <polygon id="Path" points="241.8 1.5 242.8 1.5 253.8 12 253.8 1.5 257.4 1.5 257.4 19.5 256.4 19.5 245.4 9 245.4 19.5 241.8 19.5 241.8 1.5"></polygon>
            <path d="M275.5,16.5 L266.2,16.5 L264.6,19.5 L260.5,19.5 L270.9,0.5 L281.3,19.5 L277.2,19.5 L275.5,16.5 Z M273.5,12.9 L270.8,8 L268.1,12.9 L273.5,12.9 Z" id="Shape"></path>
            <path d="M298.2,15.9 C296.6,18.1 294,19.5 291,19.5 C286,19.5 282,15.5 282,10.5 C282,5.5 286,1.5 291,1.5 C294.1,1.5 296.9,3.1 298.5,5.6 L295.6,7.8 C294.7,6.2 292.9,5.1 290.9,5.1 C287.9,5.1 285.5,7.5 285.5,10.5 C285.5,13.5 287.9,15.9 290.9,15.9 C292.3,15.9 293.5,15.4 294.5,14.5 L294.5,13.5 L290.3,13.5 L290.3,9.9 L298.1,9.9 L298.1,15.9 L298.2,15.9 L298.2,15.9 Z" id="Path"></path>
            <polygon id="Path" points="302.8 1.5 316 1.5 316 5.1 306.4 5.1 306.4 10.5 313.6 10.5 313.6 14.1 306.4 14.1 306.4 15.9 316 15.9 316 19.5 302.8 19.5"></polygon>
            <path d="M335.4,19.5 L331.1,19.5 L328,14.7 L325.2,14.7 L325.2,19.5 L321.6,19.5 L321.6,1.5 L328.2,1.5 C331.8,1.5 334.8,4.5 334.8,8.1 C334.8,10.5 333.6,12.5 331.7,13.7 L335.4,19.5 Z M328.2,11.1 C329.9,11.1 331.2,9.8 331.2,8.1 C331.2,6.4 329.9,5.1 328.2,5.1 L325.2,5.1 L325.2,11.1 L328.2,11.1 Z" id="Shape"></path>
        </g>
    </g>
</svg>