<svg xmlns="http://www.w3.org/2000/svg" xmlns:xlink="http://www.w3.org/1999/xlink" viewBox="0 0 35.82 38.73" width="250" height="250"><defs><style>.cls-1{fill:url(#New_Gradient_Swatch_1);}</style><linearGradient id="New_Gradient_Swatch_1" x1="17.91" y1="38.73" x2="17.91" gradientUnits="userSpaceOnUse"><stop offset="0" stop-color="#2549c9"/><stop offset="0.44" stop-color="#1678cf"/><stop offset="1" stop-color="#00bad7"/></linearGradient></defs><title>Asset 142</title><g id="Layer_2" data-name="Layer 2"><g id="Layer_1-2" data-name="Layer 1"><path class="cls-1" d="M35.82,13V9.14L32.45,7.19,29.83,8.71,21.28,3.77V2L17.91,0,14.54,2V3.77L6,8.71,3.37,7.19,0,9.14V13l2.62,1.52v10L0,26.06V30L3.37,31.9l2.74-1.58,8.43,4.87v1.6l3.37,1.94,3.37-1.94v-1.6l8.44-4.87,2.73,1.58L35.82,30v-3.9L33.2,24.55v-10Zm-1.5-.86-1.12.64V11.52l1.12-.65Zm-3.74-1.25,1.12.61v1.28l-1.12-.64ZM21.28,5.5,29.08,10v2.16L23,15.68l-4.33-2.49V7.35l2.62-1.51Zm-7,11.05,3.58-2.07,3.58,2.07-3.58,2.07Zm2.83,3.38V24L13.58,22V18Zm1.5,0,2.07-1.19,1.51-.87V22L18.66,24ZM19.78,5l-1.12.65V4.33l1.12-.65ZM17.91,1.73,19,2.38,17.9,3,16.75,2.4ZM16,3.73l1.12.61V5.62L16,5ZM6.74,10l7.8-4.51v.34l2.62,1.51v5.84l-4.33,2.49L6.74,12.17ZM3.37,8.93l1.12.64-1.13.66L2.21,9.6Zm1.87,1.94v1.3l-1.12.64V11.52ZM1.5,12.17V10.92l1.12.61v1.28ZM2.62,29.74,1.5,29.09V27.84l1.12.61Zm.74-2.59-1.15-.63,1.16-.67,1.12.65Zm1.88,1.94-1.12.65v-1.3l1.12-.64ZM6,25.62,4.12,24.55v-10L6,13.47,12.08,17v4.86l0-.06Zm8.56,7.84L6.74,29v-2l5.91-3.75,4.51,2.61v5.6l-2.62,1.51Zm2.62,3.11L16,35.92V34.67l1.12.62ZM17.9,34l-1.15-.63,1.16-.67,1.12.65Zm1.88,1.94-1.12.65v-1.3l1.12-.64Zm9.3-7-7.8,4.5v-.57l-2.62-1.51v-5.6L23,23.29l6.11,3.8Zm.62-3.25-6-3.71V17l6.09-3.51,1.87,1.08v10Zm2,4-1.12-.65V27.84l1.12.61Zm2.62-.65-1.12.65v-1.3l1.12-.64Zm-.75-2.59-1.13.65-1.15-.63,1.16-.67ZM32.44,10.23,31.29,9.6l1.16-.67,1.12.64Z"/></g></g></svg>