<?xml version="1.0" encoding="UTF-8"?>
<svg width="391px" height="35px" viewBox="0 0 391 35" version="1.1" xmlns="http://www.w3.org/2000/svg" xmlns:xlink="http://www.w3.org/1999/xlink">
    <title>Logos / IM / White</title>
    <g id="Logos-/-IM-/-White" stroke="none" stroke-width="1" fill="none" fill-rule="evenodd">
        <g id="im_logo" fill="#FFFFFF">
            <g id="Group">
                <path d="M36.7,27.5 C36.6,27.4 36.5,27.3 36.3,27.3 L30.7,27.3 C30.6,27.3 30.4,27.2 30.3,27.1 L20.6,10.1 C20.5,10 20.4,10 20.3,10.1 L10.6,27.1 C10.5,27.2 10.4,27.3 10.2,27.3 L4.7,27.3 C4.6,27.3 4.4,27.4 4.3,27.5 L3,29.8 C3,29.9 3,30 3.2,30 L11.9,30 C12,30 12.2,29.9 12.3,29.8 L20.5,15.5 C20.6,15.4 20.7,15.4 20.8,15.5 L29,29.8 C29.1,29.9 29.2,30 29.4,30 L38.1,30 C38.2,30 38.3,29.9 38.2,29.8 L36.7,27.5 Z" id="Fill-12"></path>
                <path d="M20.4,0.1 C20.5,-6.9388939e-18 20.6,-6.9388939e-18 20.7,0.1 L35,23.8 C35.1,23.9 35,24 34.9,24 L32.3,24 C32.2,24 32,23.9 31.9,23.8 L20.6,5.2 C20.5,5.1 20.4,5.1 20.3,5.2 L9.1,23.8 C9,23.9 8.9,24 8.7,24 L6.2,24 C6,24 6,23.9 6,23.8 L20.4,0.1 Z" id="Fill-15"></path>
                <path d="M41,34.8 C41.1,34.9 41,35 40.9,35 L26.1,35 C26,35 25.8,34.9 25.7,34.8 L20.6,26.2 C20.5,26.1 20.4,26.1 20.3,26.2 L15.2,34.8 C15.2,34.9 15,35 14.9,35 L0.2,35 C0,35 0,34.9 0,34.8 L1.3,32.6 C1.4,32.5 1.5,32.4 1.7,32.4 L13.4,32.4 C13.5,32.4 13.7,32.3 13.8,32.2 L20.4,21.1 C20.5,21 20.6,21 20.7,21.1 L27.3,32.2 C27.4,32.3 27.5,32.4 27.7,32.4 L39.4,32.4 C39.5,32.4 39.7,32.5 39.8,32.6 L41,34.8 Z" id="Fill-13"></path>
                <path d="M20.6,31.1 C20.5,31 20.4,31 20.3,31.1 L18,34.8 C18,34.9 18,35 18.2,35 L22.9,35 C23.1,35 23.1,34.9 23,34.8 L20.6,31.1 Z" id="Fill-14"></path>
            </g>
            <g id="Group" transform="translate(55.000000, 8.000000)" fill-rule="nonzero">
                <polygon id="Path" points="4.1 19 0.5 19 0.5 1 4.1 1"></polygon>
                <polygon id="Path" points="9.8 1 10.8 1 21.8 11.5 21.8 1 25.4 1 25.4 19 24.4 19 13.4 8.5 13.4 19 9.8 19"></polygon>
                <polygon id="Path" points="29.5 1 45.1 1 45.1 4.6 39.1 4.6 39.1 19 35.5 19 35.5 4.6 29.5 4.6"></polygon>
                <polygon id="Path" points="49.2 1 62.4 1 62.4 4.6 52.8 4.6 52.8 10 60 10 60 13.6 52.8 13.6 52.8 15.4 62.4 15.4 62.4 19 49.2 19"></polygon>
                <path d="M81.5,15.4 C79.9,17.6 77.3,19 74.3,19 C69.3,19 65.3,15 65.3,10 C65.3,5 69.3,1 74.3,1 C77.4,1 80.2,2.6 81.8,5.1 L78.9,7.3 C78,5.7 76.2,4.6 74.2,4.6 C71.2,4.6 68.8,7 68.8,10 C68.8,13 71.2,15.4 74.2,15.4 C75.6,15.4 76.8,14.9 77.8,14 L77.8,13 L73.6,13 L73.6,9.4 L81.4,9.4 L81.4,15.4 L81.5,15.4 Z" id="Path"></path>
                <path d="M100,19 L95.7,19 L92.6,14.2 L89.8,14.2 L89.8,19 L86.2,19 L86.2,1 L92.8,1 C96.4,1 99.4,4 99.4,7.6 C99.4,10 98.2,12 96.3,13.2 L100,19 Z M92.7,10.6 C94.4,10.6 95.7,9.3 95.7,7.6 C95.7,5.9 94.4,4.6 92.7,4.6 L89.7,4.6 L89.7,10.6 L92.7,10.6 Z" id="Shape"></path>
                <path d="M116.1,16 L106.8,16 L105.2,19 L101.1,19 L111.5,0 L121.9,19 L117.8,19 L116.1,16 Z M114.1,12.4 L111.4,7.5 L108.7,12.4 L114.1,12.4 Z" id="Shape"></path>
                <polygon id="Path" points="120.9 1 136.5 1 136.5 4.6 130.5 4.6 130.5 19 126.9 19 126.9 4.6 120.9 4.6"></polygon>
                <polygon id="Path" points="144.1 19 140.5 19 140.5 1 144.1 1"></polygon>
                <path d="M156.5,19 C151.5,19 147.5,15 147.5,10 C147.5,5 151.5,1 156.5,1 C161.5,1 165.5,5 165.5,10 C165.5,15 161.5,19 156.5,19 Z M151.1,10 C151.1,13 153.5,15.4 156.5,15.4 C159.5,15.4 161.9,13 161.9,10 C161.9,7 159.5,4.6 156.5,4.6 C153.5,4.6 151.1,7 151.1,10 Z" id="Shape"></path>
                <polygon id="Path" points="168.9 1 169.9 1 180.9 11.5 180.9 1 184.5 1 184.5 19 183.5 19 172.5 8.5 172.5 19 168.9 19"></polygon>
                <polygon id="Path" points="199.6 1 200.5 1 207 8 213.5 1 214.4 1 215.8 19 212.2 19 211.4 8.6 207 13.4 202.6 8.6 201.8 19 198.2 19"></polygon>
                <path d="M233.4,16 L224.1,16 L222.5,19 L218.4,19 L228.8,0 L239.2,19 L235.1,19 L233.4,16 Z M231.4,12.4 L228.7,7.5 L226,12.4 L231.4,12.4 Z" id="Shape"></path>
                <polygon id="Path" points="242.3 1 243.3 1 254.3 11.5 254.3 1 257.9 1 257.9 19 256.9 19 245.9 8.5 245.9 19 242.3 19"></polygon>
                <path d="M276,16 L266.7,16 L265.1,19 L261,19 L271.4,0 L281.8,19 L277.7,19 L276,16 Z M274,12.4 L271.3,7.5 L268.6,12.4 L274,12.4 Z" id="Shape"></path>
                <path d="M298.7,15.4 C297.1,17.6 294.5,19 291.5,19 C286.5,19 282.5,15 282.5,10 C282.5,5 286.5,1 291.5,1 C294.6,1 297.4,2.6 299,5.1 L296.1,7.3 C295.2,5.7 293.4,4.6 291.4,4.6 C288.4,4.6 286,7 286,10 C286,13 288.4,15.4 291.4,15.4 C292.8,15.4 294,14.9 295,14 L295,13 L290.8,13 L290.8,9.4 L298.6,9.4 L298.6,15.4 L298.7,15.4 Z" id="Path"></path>
                <polygon id="Path" points="303.3 1 316.5 1 316.5 4.6 306.9 4.6 306.9 10 314.1 10 314.1 13.6 306.9 13.6 306.9 15.4 316.5 15.4 316.5 19 303.3 19"></polygon>
                <path d="M335.9,19 L331.6,19 L328.5,14.2 L325.7,14.2 L325.7,19 L322.1,19 L322.1,1 L328.7,1 C332.3,1 335.3,4 335.3,7.6 C335.3,10 334.1,12 332.2,13.2 L335.9,19 Z M328.7,10.6 C330.4,10.6 331.7,9.3 331.7,7.6 C331.7,5.9 330.4,4.6 328.7,4.6 L325.7,4.6 L325.7,10.6 L328.7,10.6 Z" id="Shape"></path>
            </g>
        </g>
    </g>
</svg>