<?xml version="1.0" encoding="UTF-8"?>
<svg width="202px" height="42px" viewBox="0 0 202 42" version="1.1" xmlns="http://www.w3.org/2000/svg" xmlns:xlink="http://www.w3.org/1999/xlink">
    <title>Logos/Actian/Horizontal-Black</title>
    <g id="Logos/Actian/Horizontal-Black" stroke="none" stroke-width="1" fill="none" fill-rule="evenodd">
        <g id="Actian-Logo-RGB_Horizontal-Black" fill="#000000" fill-rule="nonzero">
            <path d="M67.8278908,8.8769727 C67.8046965,8.79801485 67.7322445,8.74378467 67.6499504,8.74378467 C67.5676563,8.74378467 67.4952042,8.79801485 67.4720099,8.8769727 L56.7153846,30.7110174 C56.6707658,30.776878 56.6693055,30.8628886 56.7116629,30.9302259 C56.7540202,30.9975632 56.8321823,31.0334888 56.9108685,31.0217866 L61.1964764,31.0217866 C61.4060645,31.0118742 61.5956413,30.8943366 61.6977171,30.7110174 L63.0410422,27.9441687 C63.1445278,27.7622008 63.3332782,27.6451755 63.5422829,27.6333995 L71.7275434,27.6333995 C71.9368378,27.6442536 72.1259954,27.7615313 72.2287841,27.9441687 L73.5721092,30.7110174 C73.6755948,30.8929853 73.8643452,31.0100106 74.0733499,31.0217866 L78.3890323,31.0217866 C78.4684089,31.0362103 78.548493,31.0003897 78.5906515,30.9316048 C78.6328099,30.8628199 78.628382,30.7752016 78.5795037,30.7110174 L67.8278908,8.8769727 Z M69.9882382,23.6334988 L65.2765757,23.6334988 C65.1976766,23.64234 65.120742,23.6049438 65.0789532,23.5374388 C65.0371643,23.4699337 65.0379969,23.384396 65.0810918,23.3177171 L67.4669975,18.3554342 C67.5522084,18.1850124 67.6875434,18.1850124 67.7677419,18.3554342 L70.1837221,23.3177171 C70.2317485,23.3836074 70.2350895,23.4720193 70.1921728,23.5413463 C70.1492562,23.6106732 70.0686305,23.6471058 69.9882382,23.6334988 Z" id="Shape"></path>
            <path d="M154.808189,8.8769727 C154.784994,8.79801485 154.712542,8.74378467 154.630248,8.74378467 C154.547954,8.74378467 154.475502,8.79801485 154.452308,8.8769727 L143.695682,30.7110174 C143.651064,30.776878 143.649603,30.8628886 143.691961,30.9302259 C143.734318,30.9975632 143.81248,31.0334888 143.891166,31.0217866 L148.176774,31.0217866 C148.386362,31.0118742 148.575939,30.8943366 148.678015,30.7110174 L150.026352,27.9441687 C150.127699,27.760155 150.317707,27.6423495 150.527593,27.6333995 L158.722878,27.6333995 C158.932466,27.6433119 159.122043,27.7608495 159.224119,27.9441687 L160.567444,30.7110174 C160.67093,30.8929853 160.85968,31.0100106 161.068685,31.0217866 L165.384367,31.0217866 C165.463744,31.0362103 165.543828,31.0003897 165.585986,30.9316048 C165.628145,30.8628199 165.623717,30.7752016 165.574839,30.7110174 L154.808189,8.8769727 Z M156.968536,23.6334988 L152.256873,23.6334988 C152.177974,23.64234 152.10104,23.6049438 152.059251,23.5374388 C152.017462,23.4699337 152.018295,23.384396 152.06139,23.3177171 L154.447295,18.3554342 C154.532506,18.1850124 154.667841,18.1850124 154.753052,18.3554342 L157.16402,23.3177171 C157.212046,23.3836074 157.215387,23.4720193 157.172471,23.5413463 C157.129554,23.6106732 157.048928,23.6471058 156.968536,23.6334988 L156.968536,23.6334988 Z" id="Shape"></path>
            <path d="M102.789429,27.1271464 L100.157916,24.8966253 L100.107792,24.8565261 C99.9766943,24.7336621 99.7727349,24.7336621 99.6416377,24.8565261 L99.6416377,24.8565261 C98.2755312,26.2756139 96.3884824,27.0742593 94.4187097,27.0669975 C92.6263496,27.1122984 90.8930919,26.4243791 89.6196333,25.1622737 C88.3461747,23.9001684 87.6427615,22.1731405 87.6720099,20.3804467 C87.6416648,18.5842559 88.3435564,16.853051 89.6161978,15.5851371 C90.8888393,14.3172231 92.6226443,13.6217793 94.4187097,13.6588089 C96.3654247,13.6535085 98.2313892,14.436418 99.5915136,15.8291811 L99.5915136,15.8291811 C99.730256,15.9667996 99.954012,15.9667996 100.092754,15.8291811 L100.092754,15.8291811 L102.754342,13.5936476 L102.754342,13.5936476 C102.891961,13.4549053 102.891961,13.2311493 102.754342,13.0924069 L102.754342,13.0924069 C100.612484,10.7462501 97.5804587,9.41223152 94.4036725,9.41829195 C88.0830273,9.41829195 82.9503226,14.0598015 82.9503226,20.4105211 C82.9503226,26.7612407 88.0830273,31.3726736 94.4036725,31.3726736 C97.5967794,31.3784315 100.643221,30.0327528 102.789429,27.6684864 L102.789429,27.6684864 C102.858081,27.6031982 102.896946,27.5126059 102.896946,27.417866 C102.896946,27.3231261 102.858081,27.2325338 102.789429,27.1672457 L102.789429,27.1271464 Z" id="Path"></path>
            <path d="M123.956824,9.7391067 L108.493548,9.7391067 C108.302537,9.7391067 108.147692,9.89395174 108.147692,10.0849628 L108.147692,13.6638213 C108.147692,13.8548324 108.302537,14.0096774 108.493548,14.0096774 L113.571117,14.0096774 C113.762936,14.012418 113.916992,14.1687073 113.916973,14.3605459 L113.916973,30.6759305 C113.916963,30.7685324 113.954089,30.8572704 114.020037,30.9222771 C114.085986,30.9872837 114.175249,31.0231287 114.267841,31.021823 L118.277767,31.021823 C118.469605,31.021823 118.625895,30.8677496 118.628635,30.6759305 L118.628635,14.3605459 C118.628616,14.1687073 118.782672,14.012418 118.974491,14.0096774 L123.986898,14.0096774 C124.177909,14.0096774 124.332757,13.8548324 124.332757,13.6638213 L124.332757,10.0849628 C124.333123,9.98777941 124.292586,9.89492539 124.221065,9.82912628 C124.149544,9.76332717 124.05364,9.73065521 123.956824,9.7391067 L123.956824,9.7391067 Z" id="Path"></path>
            <rect id="Rectangle" x="132.638313" y="9.7391067" width="4.70163772" height="21.2876923" rx="0.69"></rect>
            <path d="M190.661935,9.7391067 L186.712159,9.7391067 C186.521148,9.7391067 186.366303,9.89395174 186.366303,10.0849628 L186.366303,21.1373201 C186.366303,21.518263 186.135732,21.6385608 185.865062,21.3628784 L172.587196,9.3782134 C172.306501,9.12258065 172.085955,9.22282878 172.085955,9.60878412 L172.085955,30.6608933 C172.085955,30.8519043 172.2408,31.0067494 172.431811,31.0067494 L176.381588,31.0067494 C176.572599,31.0067494 176.727444,30.8519043 176.727444,30.6608933 L176.727444,19.633598 C176.727444,19.2526551 176.958015,19.1323573 177.228685,19.4030273 L190.471464,31.3826799 C190.757171,31.6383127 190.972705,31.5330521 190.972705,31.1521092 L190.972705,10.1 C190.981634,9.91617893 190.845046,9.75756046 190.661935,9.7391067 Z" id="Path"></path>
            <polygon id="Path" points="195.664318 10.0398511 196.496377 10.0398511 196.496377 12.7666005 196.832208 12.7666005 196.832208 10.0398511 197.664268 10.0398511 197.664268 9.72406948 195.664318 9.72406948"></polygon>
            <polygon id="Path" points="200.050174 11.7240199 198.576526 9.63384615 198.576526 12.7666005 198.91737 12.7666005 198.91737 10.6313151 200.050174 12.255335 201.182978 10.6313151 201.182978 12.7666005 201.523821 12.7666005 201.523821 9.63384615"></polygon>
            <path d="M3.78436725,34.6507692 L13.8593052,34.6507692 C14.0396502,34.6395064 14.2045085,34.545037 14.3054094,34.3951365 L23.7938958,18.2501737 C23.8172307,18.1873075 23.8772107,18.1455925 23.944268,18.1455925 C24.0113253,18.1455925 24.0713053,18.1873075 24.0946402,18.2501737 L33.5831266,34.3951365 C33.6823584,34.5468192 33.848192,34.6418475 34.0292308,34.6507692 L44.1091811,34.6507692 C44.2745906,34.6507692 44.3397519,34.5354839 44.2545409,34.3951365 L42.7508189,31.8438213 C42.6521076,31.6901055 42.4868924,31.5917189 42.3047146,31.5781638 L35.7885856,31.5781638 C35.6082406,31.5669009 35.4433823,31.4724316 35.3424814,31.322531 L24.0946402,12.2001985 C24.0713053,12.1373323 24.0113253,12.0956173 23.944268,12.0956173 C23.8772107,12.0956173 23.8172307,12.1373323 23.7938958,12.2001985 L12.5310174,31.3325558 C12.4301165,31.4824564 12.2652582,31.5769257 12.0849132,31.5881886 L5.56878412,31.5881886 C5.38686297,31.5986858 5.22015778,31.693152 5.11766749,31.8438213 L3.61394541,34.3951365 C3.55379653,34.5354839 3.62397022,34.6507692 3.78436725,34.6507692 Z" id="Path"></path>
            <path d="M46.3547395,37.9689826 C46.253296,37.8204039 46.0882989,37.7277089 45.9086352,37.7183623 L32.2799007,37.7183623 C32.098862,37.7094406 31.9330284,37.6144123 31.8337965,37.4627295 L24.0946402,24.3001489 C24.0713053,24.2372827 24.0113253,24.1955677 23.944268,24.1955677 C23.8772107,24.1955677 23.8172307,24.2372827 23.7938958,24.3001489 L16.0397022,37.4627295 C15.9388013,37.6126301 15.773943,37.7070994 15.593598,37.7183623 L2.00496278,37.7183623 C1.82462114,37.7253386 1.65863032,37.8185919 1.55885856,37.9689826 L0.0551364764,40.5253102 C-0.0250620347,40.6656576 0.0551364764,40.7809429 0.200496278,40.7809429 L17.3629777,40.7809429 C17.5440164,40.7720212 17.7098501,40.6769929 17.8090819,40.5253102 L23.7938958,30.3451117 C23.8172307,30.2822455 23.8772107,30.2405304 23.944268,30.2405304 C24.0113253,30.2405304 24.0713053,30.2822455 24.0946402,30.3451117 L30.0744417,40.5253102 C30.1736735,40.6769929 30.3395072,40.7720212 30.5205459,40.7809429 L47.7080893,40.7809429 C47.8684864,40.7809429 47.93866,40.6656576 47.8534491,40.5253102 L46.3547395,37.9689826 Z" id="Path"></path>
            <path d="M24.0946402,36.3950868 C24.0713053,36.3322207 24.0113253,36.2905056 23.944268,36.2905056 C23.8772107,36.2905056 23.8172307,36.3322207 23.7938958,36.3950868 L21.3678908,40.5253102 C21.2826799,40.6656576 21.3678908,40.7809429 21.5132506,40.7809429 L26.3752854,40.7809429 C26.5406948,40.7809429 26.6058561,40.6656576 26.5256576,40.5253102 L24.0946402,36.3950868 Z" id="Path"></path>
            <path d="M7.38828784,28.5205955 L10.3506203,28.5205955 C10.5311934,28.5100961 10.696367,28.4154461 10.7967246,28.2649628 L23.7938958,6.15523573 C23.8172307,6.09236955 23.8772107,6.05065451 23.944268,6.05065451 C24.0113253,6.05065451 24.0713053,6.09236955 24.0946402,6.15523573 L37.0918114,28.2649628 C37.1927123,28.4148633 37.3575706,28.5093327 37.5379156,28.5205955 L40.5002481,28.5205955 C40.6656576,28.5205955 40.7308189,28.4053102 40.6456079,28.2649628 L24.0946402,0.105260546 C24.0713053,0.042394362 24.0113253,0.000679325126 23.944268,0.000679325126 C23.8772107,0.000679325126 23.8172307,0.042394362 23.7938958,0.105260546 L7.25295285,28.2649628 C7.15771712,28.4053102 7.22287841,28.5205955 7.38828784,28.5205955 Z" id="Path"></path>
        </g>
    </g>
</svg>