<svg xmlns="http://www.w3.org/2000/svg" viewBox="0 0 402.05 81.36"><defs><style>.cls-1{fill:#238ffb;}.cls-2{fill:#2549c9;}.cls-3{fill:#86c1fd;}</style></defs><title>Actian-Logo-RGB_Horizontal-Blue</title><g id="Layer_2" data-name="Layer 2"><g id="Design"><path d="M134.61,17.71a.37.37,0,0,1,.71,0l21.45,43.56a.39.39,0,0,1-.38.62h-8.61a1.23,1.23,0,0,1-1-.62l-2.68-5.52a1.22,1.22,0,0,0-1-.62H126.76a1.23,1.23,0,0,0-1,.62l-2.68,5.52a1.21,1.21,0,0,1-1,.62h-8.55a.4.4,0,0,1-.39-.62Zm5,29.44a.4.4,0,0,0,.39-.63l-4.82-9.9c-.16-.34-.43-.34-.6,0l-4.76,9.9a.41.41,0,0,0,.39.63Z"/><path d="M308.14,17.71a.37.37,0,0,1,.71,0L330.3,61.27a.39.39,0,0,1-.38.62h-8.61a1.23,1.23,0,0,1-1-.62l-2.68-5.52a1.21,1.21,0,0,0-1-.62H300.29a1.2,1.2,0,0,0-1,.62l-2.69,5.52a1.21,1.21,0,0,1-1,.62h-8.55a.4.4,0,0,1-.39-.62Zm5,29.44a.4.4,0,0,0,.39-.63l-4.81-9.9c-.17-.34-.44-.34-.61,0l-4.76,9.9a.41.41,0,0,0,.39.63Z"/><path d="M205.12,54.16a.69.69,0,0,1,0,1l0,0a22.54,22.54,0,0,1-16.73,7.39c-12.61,0-22.85-9.2-22.85-21.87s10.24-21.93,22.85-21.93A22.49,22.49,0,0,1,205,26.09l0,0a.71.71,0,0,1,0,1l0,0-5.32,4.51h0a.71.71,0,0,1-1,0l0,0a14.37,14.37,0,0,0-10.32-4.33,13.19,13.19,0,0,0-13.46,13.41A13.13,13.13,0,0,0,188.37,54a14.39,14.39,0,0,0,10.38-4.37l0,0a.68.68,0,0,1,.93,0l.1.08,5.25,4.45Z"/><path d="M227.27,28.65a.7.7,0,0,0-.69-.7H216.45a.69.69,0,0,1-.69-.69V20.12a.69.69,0,0,1,.69-.69H247.3a.69.69,0,0,1,.69.69v7.14a.69.69,0,0,1-.69.69h-10a.7.7,0,0,0-.69.7V61.2a.7.7,0,0,1-.7.69h-8a.69.69,0,0,1-.7-.69Z"/><path d="M264.62,20.12a.69.69,0,0,1,.69-.69h8a.69.69,0,0,1,.69.69V61.2a.69.69,0,0,1-.69.69h-8a.69.69,0,0,1-.69-.69Z"/><path d="M371.81,20.12a.69.69,0,0,1,.69-.69h7.88a.69.69,0,0,1,.69.69v42c0,.76-.46,1-1,.46L353.59,38.75c-.57-.51-1-.3-1,.46v22a.69.69,0,0,1-.69.69H344a.69.69,0,0,1-.69-.69v-42c0-.77.46-1,1-.46l26.46,23.91c.57.51,1,.31,1-.45Z"/><path d="M392,20h-1.66V19.4h4V20H392.7v5.44H392Z"/><path d="M396.17,19.22l2.94,4.17,2.94-4.17v6.25h-.68V21.21l-2.26,3.24-2.26-3.24v4.26h-.68Z"/><path class="cls-1" d="M85.29,63.53A1.16,1.16,0,0,0,84.4,63h-13a1.16,1.16,0,0,1-.89-.51L48.07,24.34a.32.32,0,0,0-.6,0L25,62.51a1.16,1.16,0,0,1-.89.51h-13a1.17,1.17,0,0,0-.9.51l-3,5.09c-.17.28,0,.51.29.51h20.1a1.16,1.16,0,0,0,.89-.51L47.47,36.41a.32.32,0,0,1,.6,0L67,68.62a1.13,1.13,0,0,0,.89.51H88c.33,0,.46-.23.29-.51Z"/><path class="cls-2" d="M95.47,80.85c.17.28,0,.51-.29.51H60.9a1.13,1.13,0,0,1-.89-.51L48.07,60.54a.32.32,0,0,0-.6,0L35.53,80.85a1.13,1.13,0,0,1-.89.51H.36c-.32,0-.45-.23-.29-.51l3-5.1a1.12,1.12,0,0,1,.89-.5H31.15a1.16,1.16,0,0,0,.89-.51L47.47,48.48a.32.32,0,0,1,.6,0L63.51,74.74a1.13,1.13,0,0,0,.89.51H91.59a1.15,1.15,0,0,1,.89.5Z"/><path class="cls-2" d="M48.07,72.61a.32.32,0,0,0-.6,0l-4.84,8.24c-.17.28,0,.51.29.51h9.7c.33,0,.46-.23.3-.51Z"/><path class="cls-3" d="M47.47.21a.32.32,0,0,1,.6,0l33,56.18c.17.28,0,.51-.29.51H74.89a1.16,1.16,0,0,1-.89-.51L48.07,12.28a.32.32,0,0,0-.6,0L21.54,56.39a1.15,1.15,0,0,1-.89.51H14.74c-.33,0-.46-.23-.29-.51Z"/></g></g></svg>