<!DOCTYPE svg PUBLIC "-//W3C//DTD SVG 1.1//EN" "http://www.w3.org/Graphics/SVG/1.1/DTD/svg11.dtd">

<!-- Uploaded to: SVG Repo, www.svgrepo.com, Transformed by: SVG Repo Mixer Tools -->
<svg viewBox="0 0 36 36" xmlns="http://www.w3.org/2000/svg" xmlns:xlink="http://www.w3.org/1999/xlink" aria-hidden="true" role="img" class="iconify iconify--twemoji" preserveAspectRatio="xMidYMid meet" fill="#000000">

<g id="SVGRepo_bgCarrier" stroke-width="0"/>

<g id="SVGRepo_tracerCarrier" stroke-linecap="round" stroke-linejoin="round"/>

<g id="SVGRepo_iconCarrier">

<path fill="#c6cdd2" d="M32.415 9.586l-9-9a2.001 2.001 0 0 0-2.829 2.829l-3.859 3.859l9 9l3.859-3.859a2 2 0 0 0 2.829-2.829z"/>

<path fill="#8ca1b1" d="M22 0H7a4 4 0 0 0-4 4v28a4 4 0 0 0 4 4h22a4 4 0 0 0 4-4V11h-9c-1 0-2-1-2-2V0z"/>

<path fill="#65696c" d="M22 0h-2v9a4 4 0 0 0 4 4h9v-2h-9c-1 0-2-1-2-2V0zm-5 8a1 1 0 0 1-1 1H8a1 1 0 0 1 0-2h8a1 1 0 0 1 1 1zm0 4a1 1 0 0 1-1 1H8a1 1 0 0 1 0-2h8a1 1 0 0 1 1 1zm12 4a1 1 0 0 1-1 1H8a1 1 0 0 1 0-2h20a1 1 0 0 1 1 1zm0 4a1 1 0 0 1-1 1H8a1 1 0 1 1 0-2h20a1 1 0 0 1 1 1zm0 4a1 1 0 0 1-1 1H8a1 1 0 1 1 0-2h20a1 1 0 0 1 1 1zm0 4a1 1 0 0 1-1 1H8a1 1 0 1 1 0-2h20a1 1 0 0 1 1 1z"/>

</g>

</svg>